<?xml version="1.0" encoding="utf-8"?><!DOCTYPE svg PUBLIC "-//W3C//DTD SVG 1.1//EN" "http://www.w3.org/Graphics/SVG/1.1/DTD/svg11.dtd"><svg viewBox="0 0 612 612" xmlns="http://www.w3.org/2000/svg" xmlns:xlink="http://www.w3.org/1999/xlink"><style>:root>svg{display:none}:root>svg:target{display:block}</style><svg viewBox="0 0 34 42" id="svg--advantages-1" xmlns="http://www.w3.org/2000/svg"><path d="M28.413 6.832c0-1.824-.71-3.54-2-4.83A6.784 6.784 0 0021.58 0c-.569 0-1.134.07-1.68.21l.348 1.37c.433-.11.88-.166 1.332-.166A5.38 5.38 0 0125.413 3 5.383 5.383 0 0127 6.832v5.388h-6.785V6.833A6.84 6.84 0 0013.382 0 6.84 6.84 0 006.55 6.833v5.387H0v26.246A3.538 3.538 0 003.534 42h26.293a3.538 3.538 0 003.534-3.534V12.22h-4.948V6.832zm-20.45 0a5.425 5.425 0 015.42-5.418A5.425 5.425 0 0118.8 6.833v5.387h-2.639V6.832c0-.665.12-1.314.354-1.926l-1.32-.506a6.776 6.776 0 00-.447 2.432v5.388H7.963V6.833zm17.388 31.634c0 1.17-.952 2.12-2.12 2.12H3.533c-1.17 0-2.12-.95-2.12-2.12V13.634H25.35v24.832zm4.476 2.12h-2.55l2.079-3.621 1.806 3.147a2.11 2.11 0 01-1.335.474zm-1.178-26.952v4.005h1.414v-4.005h1.884v24.832c0 .055-.002.109-.006.163l-1.878-3.273V19.524h-1.414v15.832l-1.89 3.293a3.6 3.6 0 00.005-.183V13.634h1.885z"/></svg><svg viewBox="0 0 44 44" id="svg--advantages-2" xmlns="http://www.w3.org/2000/svg"><path d="M39.618 29.885l-9.91 5.87-3.774-2.385h4.746a2.739 2.739 0 000-5.477h-8.152a7.565 7.565 0 00-2.744.498l-6.339 2.878v-.637a.747.747 0 00-.747-.747H7.221a.747.747 0 00-.747.746v12.45a.747.747 0 00.747.747h5.477a.747.747 0 00.747-.747v-.747h15.482a4.64 4.64 0 002.729-.882l10.587-7.584a2.405 2.405 0 00-2.625-3.983zM11.951 42.334H7.968V31.378h3.983v10.956zm29.425-9.656l-10.592 7.564c-.54.39-1.19.6-1.857.598H13.445v-7.933l6.912-3.122a6.04 6.04 0 012.171-.398h8.152a1.245 1.245 0 010 2.49h-7.325a.747.747 0 00-.399 1.379l6.34 3.983a.746.746 0 00.781 0l10.308-6.12a.912.912 0 01.996 1.524l-.005.035zM43.074 23.909h-1.743A19.196 19.196 0 0024.575 5.395a3.237 3.237 0 10-4.826 0A19.192 19.192 0 002.988 23.909H.747a.747.747 0 100 1.494h42.327a.746.746 0 100-1.494zM22.159 1.5a1.743 1.743 0 110 3.486 1.743 1.743 0 010-3.486zm0 5.23a17.693 17.693 0 0117.678 17.179H4.482a17.693 17.693 0 0117.677-17.18z"/><path d="M18.145 10.27a14.67 14.67 0 00-9.362 8.052.747.747 0 101.36.607 13.18 13.18 0 018.41-7.22.746.746 0 00.383-1.184.747.747 0 00-.791-.255z"/></svg><svg viewBox="0 0 46 45" id="svg--advantages-3" xmlns="http://www.w3.org/2000/svg"><path d="M41.794 9.757h2.048a.879.879 0 100-1.757h-3.837a.879.879 0 00-.88.879v3.837a.879.879 0 101.758 0v-1.09c4.652 8 3.416 18.419-3.262 25.096A20.718 20.718 0 0115.207 41.3a.879.879 0 10-.656 1.63 22.472 22.472 0 0024.313-4.964 22.501 22.501 0 002.93-28.208z"/><path fill-rule="evenodd" clip-rule="evenodd" d="M41.61 9.657h2.232a.779.779 0 100-1.557h-3.837a.779.779 0 00-.78.779v3.837a.779.779 0 101.558 0v-1.462l.187.321c4.675 8.04 3.432 18.508-3.278 25.218a20.818 20.818 0 01-22.522 4.6.779.779 0 10-.582 1.444l-.037.093a.879.879 0 11.656-1.63 20.718 20.718 0 0022.414-4.578c6.63-6.629 7.896-16.945 3.362-24.923a21.659 21.659 0 00-.1-.174v1.09a.879.879 0 11-1.757 0V8.88c0-.486.393-.879.879-.879h3.837a.879.879 0 110 1.757h-2.048l.065.1a22.503 22.503 0 01-2.995 28.108 22.472 22.472 0 01-24.313 4.965l.037-.093a22.372 22.372 0 0024.205-4.942A22.402 22.402 0 0041.71 9.813l-.1-.156z"/><path d="M5.565 30.999a.879.879 0 00-.879.879v1.25C-.102 25.101 1.1 14.567 7.831 7.834a20.698 20.698 0 0122.535-4.528.879.879 0 00.666-1.626A22.49 22.49 0 0018.238.407a22.38 22.38 0 00-11.65 6.184 22.5 22.5 0 00-2.853 28.325H1.649a.879.879 0 100 1.758h3.917a.879.879 0 00.879-.879v-3.918A.879.879 0 005.565 31z"/><path fill-rule="evenodd" clip-rule="evenodd" d="M4.786 33.49l-.185-.31C-.212 25.113.995 14.528 7.76 7.762a20.798 20.798 0 0122.643-4.55.779.779 0 00.59-1.44l.038-.093a.879.879 0 11-.666 1.626A20.698 20.698 0 007.831 7.834c-6.685 6.685-7.916 17.12-3.245 25.125l.1.169v-1.25a.879.879 0 111.758 0v3.917a.879.879 0 01-.879.879H1.647a.879.879 0 110-1.758h2.089A22.5 22.5 0 016.589 6.591 22.38 22.38 0 0118.237.407 22.49 22.49 0 0131.032 1.68l-.038.093A22.39 22.39 0 0018.256.505 22.28 22.28 0 006.66 6.662a22.4 22.4 0 00-2.84 28.199l.103.155H1.647a.779.779 0 100 1.558h3.918c.43 0 .779-.349.779-.779v-3.918a.779.779 0 10-1.558 0v1.614z"/><path d="M20.638 18.945a.517.517 0 00-.234.692l2.904 5.872a.517.517 0 10.927-.459L21.33 19.18a.517.517 0 00-.693-.234z"/><path fill-rule="evenodd" clip-rule="evenodd" d="M20.188 19.178a.718.718 0 011.322-.088l2.904 5.872a.717.717 0 11-1.286.635l-2.904-5.871a.717.717 0 01-.036-.548zm.19.064a.517.517 0 01.953-.063l2.903 5.871a.517.517 0 01-.927.459l-2.904-5.872a.517.517 0 01-.026-.395z"/><path d="M26.706 23.828l-2.904-5.872a.517.517 0 00-.927.459l2.904 5.871a.517.517 0 00.927-.458z"/><path fill-rule="evenodd" clip-rule="evenodd" d="M23.981 17.868l2.904 5.87a.717.717 0 01-1.285.637l-2.904-5.872a.717.717 0 011.285-.635zm-.179.088l2.904 5.872a.517.517 0 01-.927.458l-2.904-5.871a.517.517 0 11.927-.459z"/><path d="M34.511 11.614a.344.344 0 00-.086-.173.501.501 0 00-.064-.076.502.502 0 00-.086-.057.475.475 0 00-.063-.042l-.042-.014c-.31-.074-6.913-1.862-12.58-.232a27.47 27.47 0 00-1.113-3.334l-.01-.018-.016-.034a.528.528 0 00-.042-.084.5.5 0 00-.107-.093l-.01-.018a.506.506 0 00-.127-.056.517.517 0 00-.127-.015l-.018.01a.53.53 0 00-.127.024l-.126.062a29.42 29.42 0 00-4.168 2.996c-2.034 1.737-4.696 4.503-5.816 7.823-1.926 5.694 2.887 9.725 3.167 9.948l.01.022c.028.02.056.036.087.05l.047.019.084.02.052.005.025-.012a10.839 10.839 0 004.257-1.09 8.69 8.69 0 002.612-1.95l1.269 2.565a5.347 5.347 0 002.273 2.402l1.012.53a4.368 4.368 0 011.812 1.93l2.163 4.373a.517.517 0 00.927-.458l-2.163-4.373a5.347 5.347 0 00-2.273-2.402l-1.006-.518A4.369 4.369 0 0122.32 27.4l-3.462-7a.517.517 0 10-.927.46l1.693 3.423c-1.726 2.139-4.34 2.758-5.617 2.936l6.02-17.784a28.392 28.392 0 011.453 6.827.517.517 0 101.032-.076 26.704 26.704 0 00-.653-4.166c4.466-1.297 9.72-.307 11.443.087-.646 1.393-2.512 5.123-5.41 7.898l-1.618-3.272a.517.517 0 10-.927.458l3.462 7c.416.807.57 1.725.44 2.624l-.199 1.114a5.35 5.35 0 00.53 3.264l2.163 4.373a.517.517 0 10.927-.459l-2.163-4.372a4.371 4.371 0 01-.434-2.612l.2-1.114a5.351 5.351 0 00-.537-3.277l-1.365-2.76c3.915-3.609 6.03-8.805 6.117-9.025l.016-.038a.49.49 0 00.005-.076.503.503 0 00.006-.103.5.5 0 00-.004-.117zm-15.47-2.506l-3.904 11.546-2.655-5.368c2.032-2.89 4.936-5.083 6.56-6.178zm-6.013 17.789c-1.174-1.162-3.663-4.234-2.284-8.313.277-.802.638-1.574 1.077-2.301l2.849 5.76-1.642 4.854z"/><path fill-rule="evenodd" clip-rule="evenodd" d="M34.36 11.365a.496.496 0 01.065.076.345.345 0 01.086.173.494.494 0 01.004.117.51.51 0 01-.007.103.49.49 0 01-.005.076l-.015.038c-.087.22-2.202 5.416-6.117 9.026l1.365 2.759a5.35 5.35 0 01.536 3.277l-.199 1.114a4.37 4.37 0 00.434 2.612l2.163 4.372a.517.517 0 11-.927.459l-2.163-4.373a5.35 5.35 0 01-.53-3.264l.2-1.114c.129-.9-.025-1.817-.441-2.624l-3.462-7a.517.517 0 01.927-.458l1.619 3.272.15-.146c2.692-2.642 4.469-6.079 5.172-7.566l.087-.186a22.99 22.99 0 00-.2-.045c-1.9-.418-6.938-1.292-11.243-.042.327 1.37.545 2.763.653 4.166a.517.517 0 01-1.032.076 28.396 28.396 0 00-1.454-6.827L14.007 27.22c.07-.01.145-.02.223-.034 1.34-.217 3.762-.88 5.394-2.902l-1.693-3.424a.517.517 0 01.927-.458l3.462 7c.389.82 1.025 1.5 1.818 1.942l1.006.518a5.347 5.347 0 012.273 2.402l2.163 4.373a.517.517 0 11-.927.458l-2.163-4.372a4.368 4.368 0 00-1.812-1.93l-1.013-.53a5.347 5.347 0 01-2.273-2.403l-1.268-2.565a8.692 8.692 0 01-2.612 1.95 10.84 10.84 0 01-4.257 1.09l-.025.012-.053-.005-.083-.02-.047-.02a.513.513 0 01-.087-.049l-.01-.021c-.28-.224-5.093-4.255-3.167-9.95 1.12-3.319 3.782-6.085 5.816-7.822a29.419 29.419 0 014.168-2.996l.126-.062a.532.532 0 01.127-.025l.018-.009c.043 0 .085.005.127.015a.508.508 0 01.127.056l.01.018c.04.026.076.057.107.093a.52.52 0 01.041.084l.026.052a27.463 27.463 0 011.114 3.334c.064-.019.129-.037.193-.054 5.413-1.478 11.6.087 12.328.27l.06.016.04.014a.489.489 0 01.064.042c.03.016.06.035.086.057zm.024-.226c.037.02.072.045.104.072l.006.005.006.005c.03.03.058.061.082.095a.544.544 0 01.126.263l-.197.035.197-.03c.008.05.01.1.007.152a.715.715 0 01-.007.114c0 .03-.002.059-.007.088l-.003.024-.024.06c-.093.233-2.182 5.364-6.058 8.996l1.298 2.625a5.55 5.55 0 01.556 3.398v.004l-.2 1.11a4.171 4.171 0 00.415 2.49l.002.002 2.162 4.373a.717.717 0 01-1.285.636l-2.162-4.371a5.55 5.55 0 01-.55-3.386l.001-.004.199-1.11a4.17 4.17 0 00-.42-2.502l-.002-.003-3.462-6.999a.717.717 0 011.285-.636l1.497 3.026c2.616-2.586 4.356-5.929 5.065-7.422-1.898-.414-6.736-1.238-10.918-.087.305 1.32.51 2.66.614 4.01a.719.719 0 01-1.184.596.717.717 0 01-.247-.49 28.19 28.19 0 00-1.255-6.215l-5.723 16.909c1.314-.227 3.542-.877 5.086-2.715l-1.637-3.308a.717.717 0 111.286-.636l3.463 7.002c.371.783.977 1.43 1.733 1.853l1.007.518a5.548 5.548 0 012.357 2.491l2.162 4.371a.717.717 0 11-1.286.636l-2.163-4.375a4.167 4.167 0 00-1.728-1.84l-1.012-.531a5.547 5.547 0 01-2.358-2.491l-1.14-2.306a8.89 8.89 0 01-2.473 1.783 11.038 11.038 0 01-4.293 1.108l-.038.02-.124-.012-.11-.027-.07-.028a.71.71 0 01-.12-.07l-.04-.028-.014-.028c-.258-.213-1.466-1.272-2.424-2.951-1.017-1.781-1.759-4.273-.773-7.19 1.138-3.37 3.834-6.166 5.875-7.91a29.619 29.619 0 014.196-3.016l.007-.004.147-.072.014-.005a.731.731 0 01.132-.029l.027-.013h.045c.06-.001.118.005.176.02l-.047.194.054-.193a.706.706 0 01.178.078l.05.03.012.025c.036.029.07.06.1.096l-.06.053.07-.02.01-.006.002.003.013-.004.068.166c.42 1.031.777 2.087 1.07 3.162 5.469-1.494 11.705.087 12.426.27l.059.014.008.002.068.023.016.009a.7.7 0 01.075.048zM20.432 7.53l-.023.02.025-.015-.002-.005zm-1.391 1.578c-.088.059-.18.121-.275.187-1.66 1.148-4.362 3.258-6.284 5.991l2.655 5.368L19.04 9.108zm-.383.506c-1.642 1.156-4.13 3.15-5.944 5.69l2.388 4.829 3.556-10.519zm-5.787 17.123c-1.223-1.266-3.447-4.249-2.127-8.153a12.12 12.12 0 011.077-2.301l2.848 5.76-1.641 4.854a9.702 9.702 0 01-.157-.16zm.072-.213c-1.217-1.287-3.268-4.154-2.01-7.875.232-.673.525-1.324.873-1.944l2.647 5.352-1.51 4.467z"/></svg><svg viewBox="0 0 42 42" id="svg--advantages-4" xmlns="http://www.w3.org/2000/svg"><path d="M40.288 21.699a.677.677 0 00-1.013-.788c-1.192.785-2.512 1.151-4.155 1.151-4.392 0-7.966-3.66-7.966-8.158 0-3.392 2.19-6.592 5.325-7.782a.678.678 0 00-.033-1.28c-1.243-.399-2.675-.452-3.911-.452-6.956 0-12.615 5.778-12.615 12.88 0 1.07.13 2.134.386 3.172a7.555 7.555 0 00-2.595-.46c-4.163 0-7.55 3.345-7.55 7.457 0 .563.067 1.125.197 1.673a6.397 6.397 0 00-3.534 1.824 6.244 6.244 0 00-1.818 4.412c0 3.489 2.874 6.327 6.405 6.327h21.191c3.848 0 6.978-3.092 6.978-6.892a6.852 6.852 0 00-2.667-5.414c3.428-1.282 6.13-4.062 7.375-7.67zm-6.064 13.084c0 3.052-2.522 5.536-5.622 5.536H7.412c-2.785 0-5.05-2.23-5.05-4.971a4.896 4.896 0 011.427-3.46 5.064 5.064 0 013.472-1.504.677.677 0 00.618-.907 6.001 6.001 0 01-.362-2.038c0-3.364 2.779-6.102 6.194-6.102 2.574 0 4.906 1.602 5.803 3.985a.678.678 0 00.916.378 4.496 4.496 0 011.872-.408c2.126 0 3.971 1.486 4.389 3.535a.678.678 0 00.796.53c.367-.074.74-.11 1.115-.11 3.1 0 5.622 2.483 5.622 5.536zm-2.884-6.339c-1.1-.463-2.3-.64-3.486-.513-.766-2.35-3.005-3.995-5.552-3.995-.607 0-1.21.094-1.789.28a7.506 7.506 0 00-2.528-2.912 11.708 11.708 0 01-.709-4.034c0-6.355 5.05-11.525 11.259-11.525.522 0 1.08.01 1.634.054-2.644 1.767-4.37 4.861-4.37 8.105 0 5.246 4.181 9.514 9.32 9.514 1.175 0 2.214-.163 3.169-.505-1.459 2.755-3.954 4.762-6.948 5.531z"/><path fill-rule="evenodd" clip-rule="evenodd" d="M13.711 19.882c.836 0 1.665.137 2.455.405a13.242 13.242 0 01-.346-3.017h.1-.1c0-7.156 5.702-12.98 12.715-12.98 1.236 0 2.682.053 3.942.457m.545 24.58c3.376-1.3 6.034-4.058 7.266-7.628a.677.677 0 00-1.013-.788c-1.192.785-2.512 1.151-4.155 1.151-4.392 0-7.966-3.66-7.966-8.158 0-3.392 2.19-6.592 5.325-7.782m.543 23.206l-.11.041.093.072a6.852 6.852 0 012.575 5.342c0 3.8-3.13 6.892-6.978 6.892H7.412c-3.532 0-6.406-2.838-6.406-6.327a6.244 6.244 0 011.818-4.412 6.398 6.398 0 013.534-1.824 7.27 7.27 0 01-.197-1.673c0-4.112 3.387-7.457 7.55-7.457a7.553 7.553 0 012.595.46l-.028-.117M6.237 29.031a7.35 7.35 0 01-.176-1.592c0-4.169 3.433-7.557 7.65-7.557M2.462 35.347c0 2.685 2.219 4.872 4.95 4.872h21.19c3.046 0 5.522-2.44 5.522-5.436s-2.476-5.437-5.522-5.437a5.65 5.65 0 00-1.096.108.779.779 0 01-.913-.607c-.408-2-2.212-3.455-4.29-3.455-.633 0-1.257.136-1.832.4a.777.777 0 01-1.05-.435c-.882-2.343-3.177-3.92-5.71-3.92-3.361 0-6.094 2.694-6.094 6.001a5.9 5.9 0 00.356 2.005.778.778 0 01-.709 1.041A4.963 4.963 0 003.86 31.96a4.796 4.796 0 00-1.398 3.388zm5.055-7.908c0-3.364 2.779-6.102 6.194-6.102 2.574 0 4.906 1.602 5.803 3.985a.678.678 0 00.916.378 4.495 4.495 0 011.872-.408c2.126 0 3.971 1.486 4.389 3.535a.678.678 0 00.796.53c.367-.074.74-.11 1.115-.11 3.1 0 5.622 2.483 5.622 5.536 0 3.052-2.522 5.536-5.622 5.536H7.412c-2.785 0-5.05-2.23-5.05-4.971a4.896 4.896 0 011.427-3.46 5.064 5.064 0 013.472-1.504.677.677 0 00.618-.907 6.001 6.001 0 01-.362-2.038zm23.823 1.005c2.947-.756 5.41-2.713 6.878-5.4l.07-.13a7.396 7.396 0 01-.14.048c-.916.308-1.91.456-3.028.456-5.14 0-9.321-4.268-9.321-9.514 0-3.19 1.668-6.234 4.238-8.014l.132-.09a21.767 21.767 0 00-1.635-.054c-6.207 0-11.258 5.17-11.258 11.524a11.708 11.708 0 00.71 4.035 7.506 7.506 0 012.527 2.912 5.817 5.817 0 011.79-.28c2.546 0 4.785 1.645 5.55 3.994a7.043 7.043 0 013.486.513h.001zm.007-.105c2.87-.746 5.276-2.643 6.73-5.249-.9.29-1.872.428-2.957.428-5.197 0-9.421-4.315-9.421-9.614 0-3.18 1.64-6.217 4.178-8.025a22.583 22.583 0 00-1.342-.034c-6.15 0-11.159 5.123-11.159 11.425a11.61 11.61 0 00.692 3.97 7.606 7.606 0 012.497 2.856 5.916 5.916 0 011.737-.26m0 0c2.562 0 4.819 1.638 5.621 3.987a7.14 7.14 0 013.424.516"/><path d="M36.258 10.49a.677.677 0 00-.678.679v1.093l-1.142-.38a.677.677 0 10-.429 1.286l1.192.397-.863 1.295a.676.676 0 00.696 1.043.677.677 0 00.432-.29l.791-1.188.792 1.187a.678.678 0 001.128-.752l-.863-1.295 1.192-.397a.678.678 0 00-.43-1.286l-1.14.38v-1.093a.678.678 0 00-.678-.678z"/><path fill-rule="evenodd" clip-rule="evenodd" d="M37.05 15.612l-.792-1.187-.792 1.187a.677.677 0 11-1.128-.752l.864-1.295-1.192-.397a.677.677 0 11.429-1.287l1.141.38V11.17a.677.677 0 111.356 0v1.093l1.141-.38a.677.677 0 01.429 1.286l-1.192.397.864 1.295a.678.678 0 01-1.128.752zm.42-1.994l.791 1.187a.779.779 0 01-1.294.863l-.71-1.063-.707 1.062a.78.78 0 01-1.081.22.779.779 0 01-.214-1.083l.79-1.186-1.066-.355a.78.78 0 01-.347-1.252.776.776 0 01.839-.224l1.009.336v-.954a.778.778 0 011.556 0v.954l1.01-.336a.78.78 0 01.977.494.778.778 0 01-.484.981l-1.069.356z"/><path d="M3.04 18.363l-1.141-.38a.679.679 0 10-.43 1.286l1.193.397-.864 1.295a.677.677 0 101.128.752l.792-1.187.792 1.188a.678.678 0 101.128-.753l-.864-1.295 1.192-.397a.678.678 0 00-.429-1.286l-1.141.38V17.27a.678.678 0 10-1.356 0v1.093z"/><path fill-rule="evenodd" clip-rule="evenodd" d="M5.966 19.269l-1.192.397.864 1.295a.677.677 0 11-1.128.753l-.792-1.188-.792 1.187a.678.678 0 11-1.128-.752l.864-1.295-1.192-.397a.678.678 0 11.429-1.286l1.141.38V17.27a.678.678 0 011.356 0v1.093l1.141-.38a.678.678 0 01.429 1.286zm-1.47-1.045v-.954a.778.778 0 00-1.556 0v.954l-1.01-.336a.777.777 0 10-.491 1.476l1.067.355-.79 1.186a.78.78 0 101.293.864l.709-1.063.708 1.063a.779.779 0 101.295-.863l-.79-1.186 1.067-.356a.78.78 0 00.485-.982.778.778 0 00-.976-.495l-1.011.337z"/><path d="M6.054 7.665a.678.678 0 00.94-.188l.791-1.187.792 1.187a.678.678 0 001.128-.752L8.842 5.43l1.191-.397a.678.678 0 00-.428-1.287l-1.142.38V3.035a.678.678 0 00-1.355 0v1.093l-1.142-.38a.678.678 0 00-.429 1.286l1.192.397-.863 1.295a.678.678 0 00.188.94z"/><path fill-rule="evenodd" clip-rule="evenodd" d="M7.077 7.533a.778.778 0 11-1.295-.863l.791-1.187.098.033.058-.086-.098-.033-.058.086-1.067-.356a.78.78 0 01-.486-.981.778.778 0 01.977-.495l1.01.337v.106l.1.033V4.02l-.1-.033v-.954a.778.778 0 111.556 0v.954l-.1.033v.106l.1-.033v-.106l1.01-.336a.78.78 0 01.978.494.778.778 0 01-.485.981l-1.069.356-.057-.086-.098.033.057.086.099-.033.79 1.187a.78.78 0 01-1.294.863L7.785 6.47l.06-.09-.06-.09-.06.09.06.09-.708 1.063z"/><path d="M39.647 5.068a.678.678 0 100-1.356.678.678 0 000 1.356z"/><path fill-rule="evenodd" clip-rule="evenodd" d="M40.425 4.39a.778.778 0 11-1.556 0 .778.778 0 011.556 0zm-.1 0a.678.678 0 11-1.356 0 .678.678 0 011.356 0z"/><path d="M11.853 15.236a.678.678 0 100-1.356.678.678 0 000 1.356z"/><path fill-rule="evenodd" clip-rule="evenodd" d="M12.63 14.558a.778.778 0 11-1.555 0 .778.778 0 011.556 0zm-.1 0a.678.678 0 11-1.355 0 .678.678 0 011.355 0z"/><path d="M22.022 2.356a.678.678 0 100-1.356.678.678 0 000 1.356z"/><path fill-rule="evenodd" clip-rule="evenodd" d="M22.8 1.678a.778.778 0 11-1.556 0 .778.778 0 011.555 0zm-.1 0a.678.678 0 11-1.356 0 .678.678 0 011.355 0z"/><path d="M41.003 28.794a.678.678 0 100-1.355.678.678 0 000 1.355z"/><path fill-rule="evenodd" clip-rule="evenodd" d="M41.78 28.117a.778.778 0 11-1.555 0 .778.778 0 011.556 0zm-.1 0a.678.678 0 11-1.355 0 .678.678 0 011.356 0z"/></svg><svg viewBox="0 0 66 46" id="svg--advantages-5" xmlns="http://www.w3.org/2000/svg"><path d="M65.772 27.507L62.435 22.4c-1.474-2.257-3.979-3.604-6.7-3.604h-8.633v-4.968c0-3.033-2.466-5.5-5.5-5.5h-16.16C24.537 3.594 20.368 0 15.372 0 9.713 0 5.111 4.603 5.111 10.26c0 3.557 1.822 6.695 4.58 8.536H1.046a1.046 1.046 0 100 2.094h10.467v2.093H7.327a1.046 1.046 0 100 2.093h4.187v2.093H1.047a1.046 1.046 0 100 2.094h10.467V33.9a5.25 5.25 0 00-3.14 4.798v1.033c0 .579.469 1.047 1.047 1.047h9.283c.595 2.561 2.892 4.478 5.632 4.478 2.74 0 5.036-1.917 5.632-4.478h20.137c.597 2.561 2.893 4.478 5.632 4.478 2.74 0 5.037-1.917 5.632-4.478h3.527c.579 0 1.046-.468 1.046-1.047V28.08c0-.204-.059-.403-.17-.573zM7.205 10.26c0-4.503 3.663-8.167 8.166-8.167s8.167 3.664 8.167 8.167c0 4.502-3.664 8.166-8.167 8.166s-8.166-3.663-8.166-8.166zm6.402 19.003H15.7a1.047 1.047 0 100-2.094h-2.093v-2.093h7.328a1.046 1.046 0 100-2.093h-7.328V20.89h13.607a1.047 1.047 0 100-2.094h-6.162a10.254 10.254 0 004.57-8.374h15.981a3.41 3.41 0 013.406 3.406V33.45H13.62l-.013.001v-4.188zm31.402 9.42H30.063a5.762 5.762 0 00-1.488-3.14H45.01v3.14zm-31.389-3.14h6.477a5.761 5.761 0 00-1.488 3.14h-8.142a3.158 3.158 0 013.153-3.14zm10.716 7.618a3.698 3.698 0 01-3.693-3.693 3.698 3.698 0 013.693-3.693 3.698 3.698 0 013.693 3.694 3.697 3.697 0 01-3.693 3.692zm31.401 0a3.698 3.698 0 01-3.693-3.693 3.698 3.698 0 013.693-3.693 3.697 3.697 0 013.693 3.694 3.697 3.697 0 01-3.693 3.692zm8.112-4.478h-2.385c-.385-2.819-2.803-5-5.727-5-2.923 0-5.341 2.181-5.727 5h-2.908V20.89h8.632c2.012 0 3.862.992 4.949 2.655l3.166 4.846v10.292z"/><path fill-rule="evenodd" clip-rule="evenodd" d="M62.267 22.51c-1.437-2.2-3.877-3.514-6.533-3.514h-8.832v-5.168c0-2.922-2.377-5.3-5.3-5.3H25.277l-.03-.162C24.356 3.723 20.268.2 15.37.2 9.824.2 5.311 4.713 5.311 10.26c0 3.487 1.786 6.564 4.49 8.37l.549.366H1.047a.846.846 0 100 1.694h10.667v2.493H7.327a.846.846 0 000 1.693h4.387v2.493H1.047a.846.846 0 100 1.694h10.667v4.966l-.12.053a5.05 5.05 0 00-3.02 4.615v1.033c0 .468.379.847.847.847h9.442l.036.155c.575 2.473 2.792 4.323 5.437 4.323 2.645 0 4.862-1.85 5.437-4.323l.036-.155h20.455l.036.155c.576 2.473 2.793 4.323 5.437 4.323s4.862-1.85 5.437-4.323l.036-.155h3.686a.846.846 0 00.847-.847V28.08a.848.848 0 00-.138-.463l-3.338-5.108zm-48.86 6.553H15.7a.847.847 0 100-1.694h-2.293v-2.493h7.527a.846.846 0 100-1.693h-7.527V20.69h13.807a.847.847 0 100-1.694h-6.822l.549-.367a10.055 10.055 0 004.482-8.21l.003-.197h16.177a3.61 3.61 0 013.606 3.606V33.65H13.63a.231.231 0 01-.024.001h-.2v-4.588zm31.802 9.82h-15.32l-.024-.173a5.563 5.563 0 00-1.437-3.031l-.311-.336h17.092v3.54zm-24.655-3.54l-.31.336a5.561 5.561 0 00-1.436 3.031l-.024.173h-8.518l.001-.2a3.358 3.358 0 013.353-3.34h6.934zm43.495 3.54h-2.76l-.023-.173c-.372-2.722-2.707-4.828-5.529-4.828-2.821 0-5.156 2.106-5.529 4.828l-.023.173h-3.283V20.69h8.832a6.082 6.082 0 015.116 2.745l-.167.11a5.882 5.882 0 00-4.949-2.655h-8.632v17.793h2.908c.386-2.819 2.804-5 5.727-5 2.924 0 5.342 2.181 5.727 5h2.385V28.391l-3.166-4.846.167-.11 3.2 4.897v10.551zM1.047 18.796a1.046 1.046 0 100 2.094h10.467v2.093H7.327a1.046 1.046 0 100 2.093h4.187v2.093H1.047a1.046 1.046 0 100 2.094h10.467V33.9a5.25 5.25 0 00-3.14 4.798v1.033c0 .579.469 1.047 1.047 1.047h9.283c.595 2.561 2.892 4.478 5.632 4.478 2.74 0 5.036-1.917 5.632-4.478h20.137c.597 2.561 2.893 4.478 5.632 4.478 2.74 0 5.037-1.917 5.632-4.478h3.527c.579 0 1.046-.468 1.046-1.047V28.08c0-.204-.059-.403-.17-.573L62.435 22.4c-1.474-2.257-3.979-3.604-6.7-3.604h-8.633v-4.968c0-3.033-2.466-5.5-5.5-5.5h-16.16C24.537 3.594 20.368 0 15.372 0 9.713 0 5.111 4.603 5.111 10.26a10.25 10.25 0 004.58 8.536H1.046zm5.958-8.536c0-4.614 3.753-8.367 8.366-8.367 4.614 0 8.367 3.753 8.367 8.367 0 4.613-3.753 8.366-8.367 8.366-4.613 0-8.366-3.753-8.366-8.366zm6.602 19.003H15.7a1.047 1.047 0 100-2.094h-2.093v-2.093h7.328a1.046 1.046 0 100-2.093h-7.328V20.89h13.607a1.047 1.047 0 100-2.094h-6.162a10.25 10.25 0 004.571-8.374h15.98a3.41 3.41 0 013.406 3.406V33.45H13.614l-.007.001v-4.188zm31.402 6.28v3.14H30.063a5.756 5.756 0 00-1.488-3.14H45.01zm-34.535 2.94a3.158 3.158 0 013.146-2.94h6.477a5.782 5.782 0 00-1.488 3.14h-8.142c0-.067.003-.134.007-.2zm13.862 4.879a3.898 3.898 0 01-3.893-3.894 3.898 3.898 0 013.893-3.893 3.898 3.898 0 013.893 3.893 3.897 3.897 0 01-3.893 3.893zm31.401 0a3.898 3.898 0 01-3.893-3.894 3.898 3.898 0 013.893-3.893 3.898 3.898 0 013.893 3.893 3.897 3.897 0 01-3.893 3.893zM15.371 2.093c-4.503 0-8.166 3.664-8.166 8.167 0 4.502 3.663 8.166 8.166 8.166s8.167-3.663 8.167-8.166-3.664-8.167-8.167-8.167zm5.272 37.376a3.698 3.698 0 003.693 3.692 3.697 3.697 0 003.693-3.693 3.698 3.698 0 00-3.693-3.693 3.698 3.698 0 00-3.693 3.694zm31.401 0a3.698 3.698 0 003.693 3.692 3.697 3.697 0 003.693-3.693 3.697 3.697 0 00-3.693-3.693 3.698 3.698 0 00-3.693 3.694z"/><path d="M16.747 10.26V5.68a1.046 1.046 0 10-2.093 0v4.238l-2.136 2.93a1.045 1.045 0 00.845 1.664c.323 0 .641-.149.846-.43l2.338-3.206c.13-.178.2-.394.2-.616z"/><path fill-rule="evenodd" clip-rule="evenodd" d="M14.854 9.984l-2.175 2.983a.845.845 0 00.684 1.345c.261 0 .519-.12.684-.348l2.338-3.206m-1.531-.774v-.066zm1.693.276V5.68a.846.846 0 10-1.693 0v4.238m1.693.342c0 .18-.057.354-.162.498zm.2-4.58v4.58c0 .222-.07.438-.2.616l-2.338 3.206a1.044 1.044 0 01-1.463.228 1.045 1.045 0 01-.228-1.461l2.136-2.93V5.68a1.046 1.046 0 112.093 0z"/><path d="M55.385 21.936h-2.003c-.578 0-1.047.468-1.047 1.047v7.327c0 .578.469 1.047 1.047 1.047h7.045c.657 0 1.244-.34 1.573-.907.33-.567.33-1.247.006-1.813l-2.444-4.278a4.822 4.822 0 00-4.177-2.423zm-.956 7.327V24.03h.956c.973 0 1.877.524 2.359 1.368l2.208 3.865H54.43z"/><path fill-rule="evenodd" clip-rule="evenodd" d="M61.832 28.737l-2.444-4.279a4.622 4.622 0 00-4.003-2.322h-2.003a.847.847 0 00-.847.847v7.327c0 .468.38.847.847.847h7.045c.585 0 1.107-.302 1.4-.808a1.597 1.597 0 00.005-1.612zm-2.27-4.378l2.444 4.278A1.797 1.797 0 0162 30.45c-.329.567-.916.907-1.573.907h-7.045a1.047 1.047 0 01-1.047-1.047v-7.327c0-.579.469-1.047 1.047-1.047h2.003c1.722 0 3.323.93 4.177 2.423zm-5.333 5.104V23.83h1.156c1.044 0 2.015.562 2.532 1.47l2.38 4.163h-6.068zm3.515-4.065a2.721 2.721 0 00-2.36-1.368h-.955v5.233h5.523l-2.208-3.865z"/></svg><svg viewBox="0 0 45 45" id="svg--advantages-6" xmlns="http://www.w3.org/2000/svg"><path d="M22.5 45C10.093 45 0 34.907 0 22.5S10.093 0 22.5 0 45 10.093 45 22.5 34.907 45 22.5 45zm0-42.188c-10.856 0-19.688 8.832-19.688 19.688 0 10.856 8.832 19.688 19.688 19.688 10.856 0 19.688-8.832 19.688-19.688 0-10.856-8.832-19.688-19.688-19.688z"/><path fill-rule="evenodd" clip-rule="evenodd" d="M.5 22.5c0 12.13 9.87 22 22 22s22-9.87 22-22-9.87-22-22-22-22 9.87-22 22zm1.813 0c0-11.132 9.055-20.188 20.187-20.188 11.132 0 20.188 9.056 20.188 20.188S33.632 42.688 22.5 42.688 2.312 33.632 2.312 22.5zM0 22.5C0 34.907 10.093 45 22.5 45S45 34.907 45 22.5 34.907 0 22.5 0 0 10.093 0 22.5zm2.813 0c0-10.856 8.83-19.688 19.687-19.688 10.856 0 19.688 8.832 19.688 19.688 0 10.856-8.832 19.688-19.688 19.688-10.856 0-19.688-8.832-19.688-19.688z"/><path d="M32.344 34.688c-.36 0-.72-.137-.994-.413l-9.844-9.844a1.406 1.406 0 01-.412-.993V10.312a1.407 1.407 0 012.812 0v12.542l9.432 9.432a1.407 1.407 0 01-.994 2.402z"/><path fill-rule="evenodd" clip-rule="evenodd" d="M31.704 33.922a.896.896 0 00.64.266.896.896 0 00.639-.266h.001a.906.906 0 000-1.283l-9.578-9.578V10.312a.907.907 0 00-1.812 0v13.126c0 .238.095.469.266.64l9.845 9.845zm1.634.353c.549-.55.549-1.44 0-1.99l-9.432-9.43V10.311a1.407 1.407 0 00-2.812 0v13.126c0 .37.148.729.412.993l9.844 9.844c.274.276.634.413.994.413s.72-.137.994-.413z"/></svg><svg viewBox="0 0 612 612" id="svg--facebook" xmlns="http://www.w3.org/2000/svg"><path d="M612 306C612 137.004 474.995 0 306 0 137.004 0 0 137.004 0 306c0 168.995 137.004 306 306 306 168.995 0 306-137.005 306-306zm-388.175 0v-58.557h35.885V212.03c0-47.764 14.271-82.175 66.569-82.175h62.201v58.418h-43.785c-21.949 0-26.929 14.577-26.929 29.849v29.32h67.487L376.046 306h-58.278v176.617H259.71V306h-35.885z"/></svg><svg viewBox="0 0 28 28" id="svg--instagram" xmlns="http://www.w3.org/2000/svg"><path d="M18 7.4h-8A2.603 2.603 0 007.4 10v8a2.603 2.603 0 002.6 2.6h8a2.603 2.603 0 002.6-2.6v-8A2.603 2.603 0 0018 7.4zM14 18a4 4 0 110-8 4 4 0 010 8zm4.253-7.279a1 1 0 110-2 1 1 0 010 2z"/><path d="M14 11.4a2.6 2.6 0 100 5.2 2.6 2.6 0 000-5.2z"/><path d="M14 0a14 14 0 100 28 14 14 0 000-28zm8 18a4 4 0 01-4 4h-8a4 4 0 01-4-4v-8a4 4 0 014-4h8a4 4 0 014 4v8z"/></svg><svg viewBox="0 0 28 31" id="svg--phone" xmlns="http://www.w3.org/2000/svg"><path d="M21.206 12.617c-1.933 5.774-7.26 9.78-9.683 11.06l-2.475-4.04-8.556 3.665 1.633 7.54c20.977-1.929 25.46-20.546 25.08-29.614l-6.82-1.08-2.735 9.476 3.556 2.993z"/></svg><svg viewBox="0 0 32 32" id="svg--telegram" xmlns="http://www.w3.org/2000/svg"><path d="M16 .5C7.437.5.5 7.438.5 16S7.438 31.5 16 31.5c8.563 0 15.5-6.938 15.5-15.5S24.562.5 16 .5zm7.613 10.619l-2.544 11.988c-.188.85-.694 1.056-1.4.656l-3.875-2.856-1.869 1.8c-.206.206-.381.381-.781.381l.275-3.944 7.181-6.488c.313-.275-.069-.431-.482-.156l-8.875 5.587-3.825-1.194c-.831-.262-.85-.831.175-1.231l14.944-5.763c.694-.25 1.3.169 1.075 1.219z"/></svg><svg viewBox="0 0 52 52" id="svg--viber" xmlns="http://www.w3.org/2000/svg"><path d="M26 0c14.36 0 26 11.64 26 26S40.36 52 26 52 0 40.36 0 26 11.64 0 26 0zm1.557 10.59c1.768.221 3.197.647 4.764 1.412 1.542.754 2.529 1.468 3.834 2.766 1.223 1.226 1.902 2.155 2.621 3.597 1.002 2.011 1.573 4.403 1.67 7.035.036.898.01 1.098-.195 1.355-.39.497-1.249.415-1.542-.144-.092-.185-.118-.344-.149-1.062-.051-1.103-.128-1.817-.282-2.669-.607-3.34-2.21-6.008-4.77-7.922-2.132-1.601-4.337-2.381-7.225-2.55-.977-.057-1.146-.093-1.367-.262-.412-.324-.432-1.083-.036-1.437.241-.22.41-.252 1.248-.226.437.015 1.08.067 1.43.108zm-11.748.555c.18.062.457.205.617.308.976.646 3.695 4.12 4.584 5.855.509.99.678 1.724.519 2.268-.165.585-.437.893-1.655 1.873-.488.395-.946.8-1.017.908-.185.267-.335.79-.335 1.16.006.857.56 2.412 1.29 3.607.566.929 1.578 2.12 2.58 3.033 1.177 1.077 2.215 1.811 3.387 2.391 1.506.75 2.426.94 3.099.626.17-.077.35-.18.406-.226.051-.046.447-.528.879-1.062.832-1.047 1.022-1.216 1.593-1.411.725-.246 1.465-.18 2.21.2.565.293 1.798 1.057 2.595 1.611 1.048.734 3.29 2.561 3.592 2.925.535.657.627 1.499.268 2.427-.38.98-1.86 2.818-2.894 3.603-.935.708-1.598.98-2.472 1.02-.72.037-1.017-.025-1.937-.405-7.216-2.97-12.977-7.404-17.55-13.495-2.39-3.182-4.21-6.481-5.453-9.904-.725-1.996-.76-2.863-.165-3.884.257-.431 1.352-1.499 2.149-2.094 1.325-.985 1.937-1.35 2.425-1.452.334-.072.915-.015 1.285.118zm12.103 3.166c3.12.457 5.535 1.904 7.118 4.254.889 1.324 1.444 2.879 1.634 4.546.067.611.067 1.725-.005 1.91-.067.174-.283.41-.468.507-.2.103-.627.093-.863-.03-.396-.2-.514-.519-.514-1.38 0-1.33-.345-2.73-.94-3.819a7.805 7.805 0 00-2.868-2.981c-1.033-.616-2.56-1.072-3.952-1.185-.504-.041-.782-.144-.972-.365a.934.934 0 01-.077-1.16c.267-.415.679-.482 1.907-.297zm1.094 3.874c1.013.216 1.789.6 2.452 1.222.853.805 1.32 1.78 1.526 3.181.139.913.082 1.273-.241 1.57-.304.277-.864.288-1.203.026-.247-.185-.324-.38-.38-.908-.067-.703-.19-1.196-.401-1.653-.452-.97-1.249-1.472-2.595-1.637-.633-.077-.823-.148-1.028-.39-.375-.446-.232-1.17.288-1.436.195-.098.277-.108.709-.083.267.016.663.062.873.108z" fill-rule="evenodd"/></svg></svg>